<?xml version="1.0" encoding="utf-8"?>
<!-- Generator: Adobe Illustrator 27.2.0, SVG Export Plug-In . SVG Version: 6.00 Build 0)  -->
<svg version="1.1" id="Layer_1" xmlns="http://www.w3.org/2000/svg" xmlns:xlink="http://www.w3.org/1999/xlink" x="0px" y="0px"
	 viewBox="0 0 130 130" style="enable-background:new 0 0 130 130;" xml:space="preserve">
<style type="text/css">
	.st0{fill:#181622;}
	.st1{display:none;}
	.st2{display:inline;fill:#FBFBFB;fill-opacity:0.97;}
	.st3{fill:#F8F8F2;}
	.st4{fill:#FF5555;}
	.st5{fill:#FFFF99;}
	.st6{fill:#00FFFF;}
</style>
<rect class="st0" width="130" height="130"/>
<g class="st1">
	<path class="st2" d="M100.2,43.6C99.1,35.5,92,29.2,83.6,28c-1.4-0.2-6.8-1-19.2-1h-0.1c-12.4,0-15.1,0.8-16.5,1
		c-8.2,1.2-15.6,6.9-17.4,15.1c-0.9,4-1,8.5-0.8,12.6c0.2,5.9,0.3,11.7,0.8,17.5c0.4,3.9,1,7.7,1.9,11.5c1.7,7,8.7,12.8,15.5,15.2
		c7.3,2.5,15.2,2.9,22.7,1.2c0.8-0.2,1.6-0.4,2.5-0.7c1.8-0.6,4-1.2,5.5-2.4c0,0,0,0,0.1-0.1c0,0,0,0,0-0.1v-5.7c0,0,0,0,0-0.1
		s0,0,0-0.1c0,0,0,0-0.1,0c0,0,0,0-0.1,0c-4.8,1.1-9.8,1.7-14.7,1.7c-8.5,0-10.8-4-11.5-5.7c-0.5-1.4-0.9-2.9-1-4.5c0,0,0-0.1,0-0.1
		c0,0,0,0,0-0.1c0,0,0,0,0.1,0c0,0,0.1,0,0.1,0c4.7,1.1,9.6,1.7,14.5,1.7c1.2,0,2.3,0,3.5,0c4.9-0.1,10.1-0.4,14.9-1.3
		c0.1,0,0.2,0,0.3-0.1c7.6-1.4,14.9-6,15.6-17.5c0-0.5,0.1-4.7,0.1-5.2C100.3,59.3,100.8,49.6,100.2,43.6z M88.5,72.3h-8V52.9
		c0-4.1-1.7-6.2-5.2-6.2c-3.8,0-5.8,2.5-5.8,7.3v10.6h-8V54.1c0-4.9-1.9-7.3-5.8-7.3c-3.5,0-5.2,2.1-5.2,6.2v19.4h-8v-20
		c0-4.1,1.1-7.3,3.2-9.7c2.2-2.4,5-3.6,8.6-3.6c4.1,0,7.2,1.6,9.3,4.7l2,3.3l2-3.3c2.1-3.1,5.2-4.7,9.2-4.7c3.5,0,6.4,1.2,8.6,3.6
		c2.1,2.4,3.2,5.7,3.2,9.7L88.5,72.3z"/>
</g>
<g>
	<path class="st0" d="M96.9,61.1c-0.4,6.9-6.5,12.1-13.4,12.1h-1.2v6.3c-4-4-9.3-6.3-14.9-6.3H45.4c-6.9,0-13-5.2-13.4-12.1
		c-0.4-7.6,5.5-13.8,13-13.8h38.9C91.4,47.2,97.3,53.5,96.9,61.1L96.9,61.1z"/>
	<path class="st3" d="M100.2,59.2c-0.3-5.9-4-11-9.1-13.5c-1-2.3-3.2-4-5.8-4c-1.9,0-3.5,0.8-4.7,2.1H45c-9.5,0-17.1,8.1-16.2,17.8
		c0.8,8.5,8.2,14.7,16.7,14.7H66c5.6,0,11,2.2,14.9,6.2l4.7,4.7v-11C94,75.5,100.6,68,100.2,59.2L100.2,59.2z"/>
	<path class="st4" d="M91.8,57.5c0,1.9-1.8,3.4-3.7,3c-1.1-0.2-2-1.1-2.2-2.2c-0.4-2,1-3.8,3-3.8C90.4,54.4,91.8,55.8,91.8,57.5
		L91.8,57.5z"/>
	<path class="st5" d="M92.3,52.1c0,0.5-0.4,1.1-1.1,1.1c-0.5,0-1.1-0.4-1.1-1.1s0.4-1.1,1.1-1.1S92.3,51.4,92.3,52.1L92.3,52.1z"/>
	<path class="st6" d="M90.1,47.8c0,2.6-2.2,4.8-4.8,4.8c-2.6,0-4.8-2.2-4.8-4.8c0-2.6,2.2-4.8,4.8-4.8C88,43,90.1,45.2,90.1,47.8
		L90.1,47.8z"/>
	<g>
		<path class="st0" d="M47.3,57.9c1,0,1.9,0.3,2.5,1.1c0.7,0.7,1.1,1.5,1.1,2.5s-0.3,1.9-1.1,2.5c-0.7,0.7-1.5,1.1-2.5,1.1
			c-0.9,0-1.6-0.2-2.3-0.8c-0.4-0.3-0.8-0.8-1-1.2c-0.2-0.5-0.3-1-0.3-1.5v-6.4H45v6.4c0,0.7,0.2,1.2,0.7,1.6c0.4,0.4,1,0.7,1.6,0.7
			c0.7,0,1.2-0.2,1.6-0.7c0.4-0.4,0.7-1,0.7-1.6c0-0.7-0.2-1.2-0.7-1.6c-0.4-0.4-1-0.7-1.5-0.7c-0.3,0-0.7,0.1-1,0.2
			c-0.3,0.1-0.5,0.3-0.8,0.7v-1.8C46,58,46.7,57.9,47.3,57.9z"/>
		<path class="st0" d="M56,57.9h1.3v7.3h-3c-0.8,0-1.5-0.3-2.1-0.9c-0.5-0.5-0.9-1.3-0.9-2.1v-4.3h1.5v4.3c0,0.4,0.2,0.8,0.4,1.1
			c0.3,0.3,0.7,0.4,1.1,0.4H56V57.9z"/>
		<path class="st0" d="M62,57.9h1.9v1.3h-1.8c-0.7,0-1.2,0.2-1.6,0.7c-0.4,0.4-0.7,1-0.7,1.5V65h-1.4v-7.1h1.3v0.8
			C60.4,58.1,61.2,57.9,62,57.9z"/>
		<path class="st0" d="M71.6,57.9c0.8,0,1.5,0.3,2.1,0.9c0.5,0.5,0.9,1.3,0.9,2.1v4.3h-1.3v-4.3c0-0.4-0.1-0.8-0.4-1.1
			c-0.3-0.3-0.7-0.4-1.1-0.4s-0.8,0.1-1.1,0.4s-0.4,0.7-0.4,1.1v4.3h-1.3v-4.3c0-0.4-0.1-0.8-0.4-1.1c-0.3-0.3-0.7-0.4-1.1-0.4
			s-0.8,0.1-1.1,0.4s-0.4,0.7-0.4,1.1v4.3h-1.3v-4.3c0-0.5,0.1-1,0.3-1.4s0.5-0.8,1-1.1c0.4-0.3,1-0.4,1.5-0.4
			c0.4,0,0.9,0.1,1.2,0.3c0.4,0.2,0.8,0.4,1,0.8c0.2-0.2,0.4-0.4,0.7-0.5C70.5,58,71.1,57.9,71.6,57.9z"/>
		<path class="st0" d="M81.2,57.9h1.2v7.3h-3.6c-1,0-1.9-0.3-2.5-1.1c-0.7-0.7-1.1-1.5-1.1-2.5c0-1,0.3-1.9,1.1-2.5
			c0.7-0.7,1.5-1.1,2.5-1.1c0.7,0,1.2,0.1,1.8,0.4V60c-0.4-0.5-1.1-0.9-1.8-0.9c-0.7,0-1.2,0.2-1.6,0.7c-0.4,0.4-0.7,1-0.7,1.6
			c0,0.7,0.2,1.2,0.7,1.6c0.4,0.4,1,0.7,1.6,0.7h2.3v-5.8H81.2z"/>
	</g>
</g>
</svg>
