<?xml version="1.0" encoding="utf-8"?>
<!-- Generator: Adobe Illustrator 27.2.0, SVG Export Plug-In . SVG Version: 6.00 Build 0)  -->
<svg version="1.1" id="Layer_1" xmlns="http://www.w3.org/2000/svg" xmlns:xlink="http://www.w3.org/1999/xlink" x="0px" y="0px"
	 viewBox="0 0 134.6 134.1" style="enable-background:new 0 0 134.6 134.1;" xml:space="preserve">
<style type="text/css">
	.st0{fill:#3A434E;stroke:#000000;stroke-linecap:round;stroke-linejoin:round;stroke-miterlimit:10;}
	.st1{fill:#56606B;}
	.st2{fill:#3A434E;}
	.st3{fill:#4F5862;}
	.st4{fill:#56606B;stroke:#000000;stroke-linecap:round;stroke-linejoin:round;stroke-miterlimit:10;}
	.st5{fill:#3A434E;fill-opacity:0;}
	.st6{fill:none;stroke:#000000;stroke-linecap:round;stroke-linejoin:round;stroke-miterlimit:10;}
	.st7{fill:#53606C;stroke:#000000;stroke-linecap:round;stroke-linejoin:round;stroke-miterlimit:10;}
	.st8{fill:#3A434E;fill-opacity:0.9412;}
	.st9{fill:#737039;stroke:#000000;stroke-linecap:round;stroke-linejoin:round;stroke-miterlimit:10;}
	.st10{fill:#625D28;stroke:#000000;stroke-linecap:round;stroke-linejoin:round;stroke-miterlimit:10;}
	.st11{fill:#625D28;}
	.st12{fill:#B3BFCD;stroke:#000000;stroke-linecap:round;stroke-linejoin:round;stroke-miterlimit:10;}
	.st13{fill:#93A1B5;}
	.st14{fill:#99988C;}
</style>
<path class="st0" d="M82.7,103.9c6.8,1.5,11,2.4,11.3-6.2s-1.8-17.3-1.8-17.3l-13.6,1.1L82.7,103.9z"/>
<path class="st0" d="M65.4,113c-0.2,10.3-0.6,17.5,6.5,17.4s12.6,1.1,13.6-5.3c1.1-6.3,1.9-20.6,0.7-28"/>
<path class="st1" d="M86.4,97.7c-1.4-7.5-4.1-23.2-4.1-23.2s13.2-1.5,10.4-13c-2.7-11.4-7.5-22.6-11-31.1S67.2,13.5,53.1,14.7
	c-19.2,1.6-25.6,7-31.6,23.1c-5.4,14.4-10.4,47.2-8.9,63.3c0.8,8.7,5,13.7,14.4,13.5s39.8-0.8,49.8-2.8c0.3-0.1,0.6-0.1,0.9-0.2"/>
<path d="M85.9,97.8l-4.1-23.2c0-0.3,0.1-0.5,0.4-0.6c2.6-0.4,5.3-1.4,7.3-3.1c1-0.8,1.9-1.9,2.4-3.1s0.7-2.5,0.6-3.9
	c0-1.3-0.4-2.6-0.7-4c-0.3-1.3-0.7-2.7-1.1-4c-0.8-2.7-1.7-5.3-2.6-7.9c-1.9-5.2-4-10.4-6.1-15.5c-0.5-1.3-1-2.6-1.7-3.8
	c-0.6-1.2-1.4-2.3-2.3-3.4c-1.7-2.1-3.8-4-6-5.5c-4.6-3-10-4.7-15.4-4.9c-2.7-0.1-5.5,0.3-8.2,0.6c-2.7,0.4-5.5,0.9-8.1,1.7
	c-2.6,0.8-5.1,1.9-7.3,3.5s-4.1,3.6-5.6,5.8c-1.5,2.3-2.8,4.7-3.9,7.3c-0.6,1.3-1.1,2.5-1.6,3.8c-0.4,1.3-0.9,2.6-1.3,3.9
	c-1.6,5.3-2.8,10.7-3.9,16.1c-1,5.4-1.9,10.9-2.6,16.4c-0.7,5.5-1.2,11-1.3,16.6c-0.1,2.8-0.1,5.5,0.1,8.3c0.1,2.8,0.5,5.5,1.6,8
	c1,2.5,2.9,4.6,5.4,5.7c2.4,1.1,5.2,1.3,8,1.3c5.6-0.1,11.1-0.2,16.7-0.4c11.1-0.4,22.2-0.8,33.2-2.3c0.1,0,0.2,0.1,0.2,0.2
	s0,0.2-0.1,0.2c-2.7,0.9-5.5,1.2-8.3,1.4c-2.8,0.2-5.6,0.5-8.3,0.6c-5.6,0.3-11.1,0.6-16.7,0.7c-5.6,0.2-11.1,0.3-16.7,0.4
	c-2.8,0.1-5.7-0.1-8.4-1.3s-4.7-3.5-5.8-6.2c-1.1-2.6-1.5-5.5-1.6-8.3c-0.2-2.8-0.2-5.6-0.1-8.4c0.2-5.6,0.7-11.1,1.3-16.7
	c0.7-5.5,1.5-11,2.6-16.5s2.3-10.9,3.9-16.3c0.4-1.3,0.9-2.7,1.3-4c0.5-1.3,1-2.6,1.6-3.9c1.1-2.6,2.4-5.1,4-7.4s3.6-4.4,5.9-6.1
	s4.9-2.8,7.6-3.7c2.7-0.8,5.5-1.4,8.2-1.7c2.8-0.3,5.5-0.7,8.4-0.6c5.6,0.2,11.2,1.9,15.9,5c2.4,1.6,4.5,3.5,6.3,5.7
	c0.9,1.1,1.7,2.3,2.4,3.5c0.7,1.3,1.2,2.6,1.7,3.9c2.1,5.1,4.2,10.3,6.1,15.5c0.9,2.6,1.8,5.3,2.6,7.9c0.4,1.3,0.8,2.7,1.1,4
	c0.3,1.3,0.7,2.7,0.8,4.2c0.1,1.4-0.1,2.9-0.7,4.3s-1.5,2.5-2.6,3.5c-2.3,1.9-5,2.8-7.9,3.3l0.4-0.6L87,97c0,0.3-0.1,0.5-0.4,0.6
	S85.9,98.1,85.9,97.8z"/>
<path class="st2" d="M26.5,114.1c-4.7,0-7.4-2.1-10-4.4c-2.3-2-3.2-4.6-3.4-8.6c-0.1-2.7-0.6-10,0.4-18.8c3.8,0.9,9.7,3.8,13.4,7.6
	c5.6,5.7,17.7,6.3,22.7,6.3h1.8l0.1-0.4c0,0,0.5-2.6,1.8-5.2l0.3-0.6l-0.7-0.1C52.5,89.8,42,88,43.2,79.1c0.7-4.9,13.3-7.9,33.9-7.9
	c2.2,0,3.8,0,4.2,0.1l3.5,2.2c-1.5,0.5-2.6,0.6-2.6,0.6l-0.5,0.1l0.1,0.5c0,0.2,2.8,16.4,4.1,24c0,0-7.9,13.1-8,13s-0.3-0.1-0.3-0.1
	c-0.3,0-0.7,0.1-0.9,0.1c-9.9,1.7-39.6,2.4-49.3,2.6L26.5,114.1L26.5,114.1z"/>
<path d="M45.9,51.4c-0.7,0-1.4-0.6-1.4-1.4v-5.1c0-0.7,0.6-1.4,1.4-1.4c0.7,0,1.4,0.6,1.4,1.4V50C47.2,50.8,46.6,51.4,45.9,51.4z"/>
<path class="st3" d="M72.9,30.4c-3.5,0.4-2.7,2.9-1.2,3.5s3.7,0.1,4.3-1.6C76.4,30.7,74.7,30.2,72.9,30.4z"/>
<path class="st3" d="M44.3,54c-0.4,0.7-1.5,0.2-2.7-0.6s-2.1-1.5-1.6-2.2c0.4-0.7,1.6-0.4,2.8,0.4C44,52.4,44.8,53.3,44.3,54z"/>
<path class="st4" d="M27.3,36.2c0-5.6-3.7-9.4-7.9-9.8s-9-0.3-14,11.3s-6.7,15.7-2.6,17.9c4.1,2.2,9.5,1.5,11.3-1.4
	c0,0,5.3,3.8,9.7-3.8"/>
<path class="st5" d="M11.2,40.6c-2.7,5.1-2.7,7.7-0.5,8.5s4.1,0.7,6.4-3c0,0,2,0.7,4.9-4.1c0.9-1.5-0.7-2.6-0.7-2.6s-4.8,1.3-7.1-5
	C14.2,34.4,11.2,40.6,11.2,40.6z"/>
<path class="st6" d="M9.8,43.4l4.4-9c0,0,1.8,6.3,7.8,4.9"/>
<path class="st7" d="M27.9,67.4c-4.9,0.8-9.7,4.5-9.3,15.7c0.4,11.2,0.5,18.7,6.1,20c5.5,1.3,13.8,0.3,14.1-7.1
	c0.3-7.4,0.3-16.1,0.3-16.1"/>
<path class="st2" d="M28.7,103c-1.4,0-2.8-0.2-4.1-0.5c-1.2-0.3-2.2-0.9-3-2c0.5,0.2,1.1,0.3,1.7,0.3c1.2,0,5.2-0.5,5.8-7.2
	c0.7-7.4,2.8-10.9,6.6-10.9c0.8,0,1.6,0.1,2.6,0.4c0,3.4-0.1,8.3-0.2,12.7C37.9,102.5,30.9,103,28.7,103z"/>
<path class="st1" d="M50.7,19c-5.2,2.9-14.6,4.7-18.1-1.5c-3-5.4,2.1-9.7,7.8-10S48,8.7,48,8.7s1.9-5.9,9.3-7.7c3.9-1,6-0.1,6.2,1.2
	c0,0,3.6-0.9,4,3.5c0,0,3.9-0.4,3.1,5.2S60,21,52.9,17.3C52.9,17.3,51.8,18.5,50.7,19z"/>
<path class="st8" d="M40.8,21.7c-2.7,0-4.8-0.9-6.3-2.3c-0.7-1.1-0.8-2.9-0.3-4.3c0.8-1.9,2.6-3.3,4.6-3.7c1.2-0.2,2.6-0.4,3.9-0.4
	c3.3,0,6.2,0.8,7.3,1.9l0.6,0.6l0.3-0.7c0,0,0.7-2,2.2-2c0.2,0,0.5,0.1,0.8,0.2c2.2,0.9,3.5,1.2,4.6,1.2c0.5,0,0.9-0.1,1.3-0.2
	c0.1-0.1,0.4-0.1,0.6-0.1c0.6,0,1.5,0.3,1.8,0.8c0.2,0.3,0.2,0.6,0.1,1l-0.2,0.6h0.7c0.4,0,1.4,0.2,1.8,0.9c0.2,0.4,0.2,1-0.2,1.7
	c-1.8,0.8-3.8,1.2-5.7,1.2c-2,0-4,0-5.6-0.8c0,0-1.2,1.3-2.2,1.8C47.8,20.7,43.9,21.7,40.8,21.7z"/>
<path d="M61.8,18.7c-3.1,0.5-6.3,0.1-8.9-1.5c0.7,0.2,1.5,0.4,2.2,0.5c0.7,0.2,1.4,0.2,2.2,0.3c0.7,0.1,1.4,0,2.2,0
	c0.7-0.1,1.4-0.1,2.2-0.2h0.1c0.3,0,0.5,0.1,0.6,0.4C62.3,18.4,62.1,18.7,61.8,18.7z"/>
<path d="M37.6,21.3c-2.4-0.4-4.8-2.1-5.7-4.5c-0.5-1.2-0.7-2.6-0.3-3.9c0.3-1.3,1.1-2.4,2.1-3.3c2-1.7,4.6-2.5,7.1-2.6
	c1.3-0.1,2.5,0,3.8,0.1c0.6,0.1,1.3,0.2,1.9,0.4c0.6,0.2,1.2,0.4,1.9,0.8l-0.8,0.2c0.6-1.6,1.6-3,2.8-4.2s2.6-2.2,4.1-2.9
	s3.2-1.1,4.8-1.3C60.1,0,61,0,61.9,0.2c0.4,0.1,0.9,0.3,1.3,0.6s0.7,0.8,0.8,1.3l-0.6-0.4c0.6-0.1,1.2-0.1,1.7,0
	c0.6,0.1,1.1,0.4,1.6,0.8c0.4,0.4,0.7,0.9,0.9,1.5c0.1,0.3,0.2,0.5,0.2,0.8l0.1,0.8l-0.5-0.4c1,0,1.9,0.3,2.6,0.9
	c0.7,0.7,1,1.6,1.1,2.5s0,1.7-0.1,2.5c-0.2,0.9-0.5,1.7-1,2.4c-0.9,1.4-2.2,2.5-3.7,3.4c-1.4,0.9-3,1.4-4.6,1.8
	c-0.3,0.1-0.5-0.1-0.6-0.4s0.1-0.5,0.4-0.6c1.5-0.3,3-0.9,4.3-1.7s2.5-1.8,3.3-3.1c0.4-0.6,0.7-1.3,0.8-2c0.1-0.7,0.2-1.5,0.1-2.2
	s-0.3-1.4-0.8-1.9c-0.5-0.4-1.2-0.7-1.8-0.7c-0.3,0-0.5-0.2-0.5-0.4L66.8,5c-0.1-0.2-0.1-0.4-0.2-0.7c-0.2-0.4-0.4-0.8-0.7-1.1
	c-0.3-0.3-0.7-0.5-1.1-0.6s-0.9-0.1-1.3,0c-0.3,0.1-0.5-0.1-0.6-0.4c-0.1-0.5-0.7-0.9-1.4-1.1S60,0.9,59.3,1
	c-1.5,0.2-3.1,0.6-4.5,1.2c-1.4,0.7-2.7,1.6-3.8,2.7s-2,2.5-2.5,3.8C48.4,9,48.1,9.1,47.9,9h-0.1c-0.4-0.2-1-0.5-1.5-0.6
	c-0.6-0.1-1.2-0.2-1.7-0.3C43.4,8,42.2,7.9,41,8c-2.4,0.1-4.7,0.8-6.5,2.3c-0.9,0.7-1.6,1.7-1.9,2.8c-0.3,1.1-0.2,2.3,0.2,3.4
	s1.1,2.1,1.9,2.9C35.3,20.3,36.4,20.9,37.6,21.3L37.6,21.3z"/>
<path class="st6" d="M63.5,2.2c0,3.5-2.6,5.5-4.3,6.1 M67.5,5.7c0.2,3.4-3.3,5.2-3.3,5.2"/>
<path class="st9" d="M90.3,84.8c2.6,2.3,3,4.3-2.4,4.8c-5.3,0.5-25.7,2.4-28.2,2.6c-2.4,0.3-3.4,1.7-3.4,2.8c0,1.1,0.5,3.2,4,3.1
	c3.4-0.1,23.8-1.5,30.4-2.4c6.6-0.8,14.4-2.4,13.4-9S98.7,78,98.7,78S90.3,84.8,90.3,84.8z"/>
<path class="st10" d="M90.3,84.8c2.6,2.3,3,4.3-2.4,4.8c-5.3,0.5-25.7,2.4-28.2,2.6c-2.4,0.3-3.4,1.7-3.4,2.8c0,1.1,0.5,3.2,4,3.1
	c3.4-0.1,23.8-1.5,30.4-2.4c6.6-0.8,13.8-2.3,13.4-9c-0.3-5.5-3.1-7-4.4-8.1c-0.5-0.1-1-0.1-1.6-0.2C98.1,78.4,90.3,84.8,90.3,84.8z
	"/>
<path class="st9" d="M102.7,64.7c5.4-0.1,10.3-1.9,12.2-6.5c1.9-4.6,8.7-10.1,14.2-2.1c5.4,8.1,6.6,17.3,2.8,23.7
	c-3.8,6.5-12.1,3.5-14.9-0.5c-2.7-4-8.6-2.9-14.5-2.7C96.6,76.8,102.7,64.7,102.7,64.7z"/>
<path class="st7" d="M65.9,54.9c0,0,10.2,21.3,13.5,26.8c3.2,5.5,12.9,6.2,17.4,3.5s7.3-7.3,8-15.1c0.7-7.9-2.4-14.9-10-15.2
	s-11.9,7.6-12.1,13.7"/>
<path class="st4" d="M65.9,54.9c0,0,10.2,21.3,13.5,26.8c3.2,5.5,12.9,6.2,17.4,3.5s7.3-7.3,8-15.1c0.7-7.9-2.4-14.9-10-15.2
	s-11.9,7.6-12.1,13.7"/>
<path class="st2" d="M90.2,86.2c-3.7,0-8.3-1.3-10.4-4.8c-0.9-1.5-2.4-4.3-4.4-8.4l5.9-0.1c4,7.4,5.9,9.8,8,9.8c3.9,0,6-3.4,6.9-9.5
	c0.2-1.2,0.3-2.3,0.4-3.4c0.5-4.6,0.9-7.2,3.4-7.5c0.3,0,0.6-0.1,0.9-0.1c2.1,0,2.5,1.2,3.1,2.8c0.1,0.2,0.2,0.5,0.2,0.7
	c0.1,1.3,0.1,2.7,0,4.2c-0.7,7.3-3.1,11.9-7.7,14.7C94.9,85.6,92.6,86.2,90.2,86.2z"/>
<path d="M89.2,63.9l-0.3,6.6c-0.1,1.1-0.2,2.2-0.4,3.3c-0.1,0.6-0.3,1.1-0.5,1.7c-0.3,0.5-0.6,1.1-1.2,1.5c-0.2,0.1-0.5,0.1-0.7-0.2
	c-0.1-0.2-0.1-0.5,0.2-0.7c0.7-0.4,1.1-1.5,1.3-2.5c0.2-1,0.4-2.1,0.5-3.2c0.2-2.2,0.3-4.4,0.5-6.6c0-0.2,0.2-0.3,0.3-0.3
	C89.1,63.6,89.2,63.8,89.2,63.9L89.2,63.9z"/>
<path class="st9" d="M52.3,68.7c-6.3,0.6-11.1,3.9-10,10.7c1.1,6.8,7.6,8.1,16,7.7s26.4-1.3,26.4-1.3s-3.3-1.7-4.8-3.3
	c-0.5-0.6-1-1.4-1.6-2.5c-1.6,0.1-15.5,0.8-22.7,1c-3.4,0.1-3.8-1.2-3.9-1.8c-0.3-1.2,0.5-2.7,2.8-2.8c3.1-0.2,10.8-0.7,21.4-0.7
	h11.5c0,0,0.9-0.3,1-9.1C88.4,66.5,58.6,68.1,52.3,68.7L52.3,68.7z"/>
<path class="st11" d="M56.2,86.7c-8.8,0-12.6-2.3-13.5-7.4c0-0.1,0-0.2-0.1-0.4c1.2,1.5,3.5,2.7,5.6,2.7c1.4,0,2.6-0.5,3.6-1.5
	c0.5,0.7,1.4,1.4,3.7,1.4h0.4c6.9-0.2,19.5-0.8,22.1-0.9c0.6,1.1,1.2,1.9,1.6,2.4c0.9,1,2.4,1.9,3.6,2.5c-5,0.3-18.1,0.9-24.7,1.2
	C58.5,86.7,56.2,86.7,56.2,86.7z"/>
<path class="st12" d="M44.1,57.9c-2.2-0.6-5.8-8.3-8.7-8.7c-2.9-0.3-6.6,1.6-3.2,8.5s8,10,14.3,8.2c6.3-1.8,12.7-5.1,14.5-8.3
	s-0.6-6.2-4.8-4.3C52.1,55,46.3,58.5,44.1,57.9z"/>
<path class="st13" d="M43.1,65.9c-4.3,0-7.7-2.7-10.4-8.4c-1.4-2.8-1.7-5.1-0.8-6.4c0.8-1.3,2.3-1.4,2.9-1.4h0.6
	c0.4,0,0.8,0.2,1.2,0.6c-0.7,0.1-1.3,0.5-1.6,1.2c-0.6,1.2-0.3,2.9,0.9,4.7l0.4,0.6c2.1,3.1,4.1,6,7.8,6c0.9,0,1.9-0.2,2.9-0.6
	c5.6-2,9.4-3.6,11.1-5.4c1.2-1.3,1.9-2.6,1.7-3.6c0.5,0.2,0.9,0.5,1.1,0.9c0.5,0.8,0.4,1.9-0.2,3c-1.6,2.8-7.4,6.2-14.2,8.1
	C45.3,65.7,44.2,65.9,43.1,65.9z"/>
<path class="st2" d="M13.9,107.7c-0.1,5.1,1.3,10.2,2.3,14.8c1.3,5.5,1.3,10.1,5.2,10.7s10.1,0.9,14.4,0s4.1-5.2,4.5-8.2
	c0.4-3.1,0-10.7,0-10.7s-1.1-1.4-3-1.9"/>
<path d="M14.4,107.7c-0.1,5.2,1.3,10.3,2.5,15.4l0.8,3.9c0.3,1.3,0.6,2.5,1.1,3.6c0.3,0.5,0.6,1,1.1,1.4c0.5,0.3,1,0.5,1.6,0.6
	c1.3,0.2,2.6,0.3,3.9,0.4c2.6,0.2,5.2,0.2,7.8,0c1.3-0.1,2.6-0.3,3.7-0.7c1.1-0.4,1.9-1.4,2.3-2.6c0.4-1.2,0.5-2.4,0.7-3.7
	c0.1-0.7,0.2-1.3,0.2-1.9c0.1-0.6,0.1-1.3,0.1-1.9c0-2.6,0-5.2-0.2-7.8l0.1,0.3c-0.1-0.2-0.3-0.4-0.5-0.6l-0.6-0.6
	c-0.4-0.4-0.9-0.7-1.5-0.9c-0.1,0-0.1-0.1-0.1-0.2s0.1-0.1,0.2-0.1c0.6,0.1,1.2,0.3,1.7,0.6c0.3,0.1,0.5,0.3,0.8,0.5
	s0.5,0.4,0.8,0.6c0.1,0.1,0.1,0.2,0.1,0.2c0.1,2.6,0.2,5.3,0.2,7.9c0,0.7,0,1.3-0.1,2s-0.2,1.3-0.2,2c-0.1,1.3-0.3,2.7-0.7,4
	c-0.5,1.3-1.5,2.6-2.8,3.1c-1.4,0.6-2.7,0.7-4,0.8c-2.7,0.2-5.3,0.2-8,0c-1.3-0.1-2.6-0.2-4-0.4c-0.7-0.1-1.4-0.4-2-0.8
	c-0.6-0.5-1-1.1-1.4-1.7c-0.6-1.3-0.9-2.6-1.2-3.9l-0.8-3.9c-1.1-5.1-2.6-10.3-2.5-15.6c0-0.3,0.2-0.5,0.5-0.5
	C14.2,107.2,14.4,107.4,14.4,107.7z"/>
<path class="st9" d="M68.2,86.7l0.4,4.6c0,0,0.3,1.5,2.4,1.5c2.1-0.1,2.2-2,2.2-2l-0.1-4.5L68.2,86.7z"/>
<path class="st11" d="M110.5,71.5c-0.5,1.8,0.5,2.9,3.8,4.6c3.3,1.8,4,5.1,8.2,6c4.3,0.9,8.2-4.5,3.8-10.1
	C121.8,66.4,112.2,65.5,110.5,71.5z"/>
<circle class="st14" cx="126.1" cy="57.8" r="1.7"/>
<path class="st1" d="M17.4,115.3c0,0,0.8,3.9,1.1,6.3c0.3,2.4,0.9,3.8,5.9,3.2c5-0.6,4.9-1.5,5.1-6.4s-0.1-7.4-3.7-7.6
	S16.7,111.5,17.4,115.3z"/>
<path class="st2" d="M11.2,40.6c-2.7,5.1-2.7,7.7-0.5,8.5s4.1,0.7,6.4-3c0,0,2,0.7,4.9-4.1c0.9-1.5-0.7-2.6-0.7-2.6s-4.8,1.3-7.1-5
	C14.2,34.4,11.2,40.6,11.2,40.6z"/>
</svg>
