<?xml version="1.0" encoding="utf-8"?>
<!-- Generator: Adobe Illustrator 27.2.0, SVG Export Plug-In . SVG Version: 6.00 Build 0)  -->
<svg version="1.1" id="Layer_1" xmlns="http://www.w3.org/2000/svg" xmlns:xlink="http://www.w3.org/1999/xlink" x="0px" y="0px"
	 viewBox="0 0 261 66" style="enable-background:new 0 0 261 66;" xml:space="preserve">
<style type="text/css">
	.st0{fill:none;}
	.st1{fill:#FF5555;}
	.st2{fill:#181622;}
	.st3{fill:#FFFF99;}
	.st4{fill:#00FFFF;}
	.st5{display:none;}
	.st6{display:inline;fill:#F8F8F2;}
</style>
<rect class="st0" width="261" height="66"/>
<g>
	<path class="st1" d="M26.9,24.1c10.2,0,18.2,8.2,18.2,18.9c0,10.7-8,18.8-18.3,18.8c-5,0-9.3-1.8-11.9-5.1V61H7.3v-50h8v17.8
		C17.9,25.8,22,24.1,26.9,24.1z M26.1,54.4c6.2,0,10.7-4.8,10.7-11.4c0-6.6-4.6-11.5-10.7-11.5c-6.2,0-10.7,4.8-10.7,11.5
		C15.4,49.7,19.8,54.4,26.1,54.4z"/>
	<path class="st1" d="M72.1,24.9h8V61h-7.6v-4.2c-2,3.2-5.7,5-10.1,5c-8,0-13.7-6.2-13.7-14.5V24.9h8v21.5c0,4.9,3.1,8,7.7,8
		c4.6,0,7.6-3.2,7.6-8V24.9z"/>
	<path class="st1" d="M103.7,24.5h3.4v7.2h-4.4c-5,0-8.3,3.2-8.3,8.9V61h-8V24.9h7.6v5C95.8,25.9,99.3,24.5,103.7,24.5z"/>
	<path class="st1" d="M150.2,24.1c7.5,0,12.9,5.4,12.9,13.5V61h-8V39.6c0-5-2.8-8-7.1-8c-4.2,0-7.1,3-7.1,8V61h-8V39.6
		c0-5-2.8-8-7.1-8c-4.2,0-7,3-7,8V61h-8V24.9h7.6v4.4c1.9-3.4,5.4-5.2,9.7-5.2c4.8,0,8.8,2.2,11.1,6
		C141.1,26.4,145.2,24.1,150.2,24.1z"/>
	<path class="st1" d="M183.3,24.1c8.8,0,14.8,5.3,14.8,12.8V61h-7.6v-4c-2.7,3.2-6.4,4.8-10.7,4.8c-8,0-13.1-4.6-13.1-10.7
		c0-5.4,4.2-8.9,11.5-10.5L190,38v-1.1c0-3.4-2.8-5.6-6.8-5.6c-3.9,0-7,2.1-8.3,5.6l-7-3.5C170.1,27.9,176.1,24.1,183.3,24.1z
		 M180.7,55.5c5.4,0,9.3-3.9,9.3-9v-2.3l-10.3,2.3c-3,0.7-4.8,2.4-4.8,4.6C175,53.8,177.2,55.5,180.7,55.5z"/>
</g>
<g>
	<path class="st2" d="M257.7,16.9C257.3,23,252,27.5,246,27.5h-1.1V33c-3.5-3.5-8.2-5.5-13.1-5.5h-19.1c-6.1,0-11.3-4.5-11.7-10.6
		c-0.4-6.6,4.8-12.1,11.3-12.1h34C252.9,4.8,258.1,10.3,257.7,16.9L257.7,16.9z"/>
	<path class="st2" d="M260.6,15.3c-0.3-5.2-3.5-9.6-8-11.8c-0.9-2-2.8-3.5-5.1-3.5c-1.6,0-3.1,0.7-4.1,1.8h-31.1
		c-8.3,0-15,7.1-14.1,15.6c0.7,7.4,7.2,12.9,14.6,12.9h17.9c4.9,0,9.6,1.9,13.1,5.4l4.1,4.1v-9.6C255.2,29.5,261,23,260.6,15.3
		L260.6,15.3z"/>
	<path class="st1" d="M253.3,13.8c0,1.6-1.5,3-3.3,2.6c-1-0.2-1.7-1-1.9-1.9c-0.4-1.7,0.9-3.4,2.6-3.4
		C252,11.1,253.3,12.3,253.3,13.8L253.3,13.8z"/>
	<path class="st3" d="M253.6,9c0,0.5-0.4,1-1,1c-0.5,0-1-0.4-1-1c0-0.6,0.4-1,1-1C253.3,8.1,253.6,8.5,253.6,9L253.6,9z"/>
	<path class="st4" d="M251.7,5.3c0,2.3-1.9,4.2-4.2,4.2s-4.2-1.9-4.2-4.2s1.9-4.2,4.2-4.2C249.9,1.1,251.7,3,251.7,5.3L251.7,5.3z"
		/>
	<g class="st5">
		<path class="st6" d="M214.3,14.1c0.9,0,1.6,0.3,2.2,1c0.6,0.6,1,1.3,1,2.2c0,0.9-0.3,1.6-1,2.2c-0.6,0.6-1.3,1-2.2,1
			c-0.8,0-1.4-0.2-2-0.7c-0.4-0.3-0.7-0.7-0.9-1.1c-0.2-0.5-0.3-0.9-0.3-1.3v-5.6h1.2v5.6c0,0.6,0.2,1.1,0.6,1.4s0.9,0.6,1.4,0.6
			c0.6,0,1.1-0.2,1.4-0.6c0.4-0.4,0.6-0.9,0.6-1.4c0-0.6-0.2-1.1-0.6-1.4c-0.4-0.4-0.9-0.6-1.3-0.6c-0.3,0-0.6,0.1-0.9,0.2
			c-0.3,0.1-0.5,0.3-0.7,0.6v-1.5C213.2,14.2,213.7,14.1,214.3,14.1z"/>
		<path class="st6" d="M221.9,14.1h1.2v6.3h-2.6c-0.7,0-1.3-0.3-1.8-0.8c-0.5-0.5-0.8-1.2-0.8-1.8v-3.8h1.3v3.8c0,0.4,0.2,0.7,0.4,1
			c0.3,0.3,0.6,0.4,1,0.4h1.3V14.1z"/>
		<path class="st6" d="M227.2,14.1h1.6v1.2h-1.5c-0.6,0-1.1,0.2-1.4,0.6c-0.4,0.4-0.6,0.9-0.6,1.3v3.2H224v-6.3h1.2v0.7
			C225.8,14.3,226.4,14.1,227.2,14.1z"/>
		<path class="st6" d="M235.6,14.1c0.7,0,1.3,0.3,1.8,0.8c0.5,0.5,0.8,1.2,0.8,1.8v3.8H237v-3.8c0-0.4-0.1-0.7-0.4-1
			c-0.3-0.3-0.6-0.4-1-0.4s-0.7,0.1-1,0.4c-0.3,0.3-0.4,0.6-0.4,1v3.8h-1.2v-3.8c0-0.4-0.1-0.7-0.4-1c-0.3-0.3-0.6-0.4-1-0.4
			s-0.7,0.1-1,0.4c-0.3,0.3-0.4,0.6-0.4,1v3.8h-1.2v-3.8c0-0.5,0.1-0.9,0.3-1.3c0.2-0.4,0.5-0.7,0.9-1c0.4-0.3,0.9-0.4,1.3-0.4
			c0.4,0,0.8,0.1,1.1,0.3c0.4,0.2,0.7,0.4,0.9,0.7c0.2-0.2,0.4-0.4,0.6-0.5C234.6,14.2,235.1,14.1,235.6,14.1z"/>
		<path class="st6" d="M243.9,14.1h1.1v6.3h-3.2c-0.9,0-1.6-0.3-2.2-1c-0.6-0.6-1-1.3-1-2.2c0-0.9,0.3-1.6,1-2.2
			c0.6-0.6,1.3-1,2.2-1c0.6,0,1.1,0.1,1.5,0.4V16c-0.4-0.5-1-0.8-1.5-0.8s-1.1,0.2-1.4,0.6c-0.4,0.4-0.6,0.9-0.6,1.4
			s0.2,1.1,0.6,1.4c0.4,0.4,0.9,0.6,1.4,0.6h2L243.9,14.1L243.9,14.1z"/>
	</g>
</g>
<g>
	<path class="st2" d="M207.1,60.7c0,0.6-0.5,1.1-1.2,1.1c-0.6,0-1.1-0.5-1.1-1.1c0-0.6,0.5-1.2,1.1-1.2
		C206.6,59.5,207.1,60,207.1,60.7z"/>
	<path class="st2" d="M212.6,62c-1.9,0-3.5-1-4.1-2.6l1.6-0.8c0.5,1.1,1.4,1.7,2.5,1.7c0.9,0,1.5-0.4,1.5-1.1c0-0.6-0.7-0.9-1.2-1.1
		l-1.6-0.4c-1.6-0.4-2.4-1.4-2.4-2.7c0-1.7,1.4-2.8,3.5-2.8c1.8,0,3.3,0.9,3.9,2.4l-1.6,0.8c-0.3-0.9-1.2-1.4-2.2-1.4
		c-0.9,0-1.4,0.4-1.4,1c0,0.6,0.6,0.9,1.1,1l1.7,0.5c1.6,0.4,2.5,1.4,2.5,2.7C216.2,60.9,214.7,62,212.6,62z"/>
	<path class="st2" d="M221.6,62c-2.7,0-4.9-2.1-4.9-4.9s2.1-4.9,4.9-4.9c2.7,0,4.9,2,4.9,4.9S224.3,62,221.6,62z M221.6,60.1
		c1.6,0,2.7-1.2,2.7-2.9s-1.2-3-2.7-3c-1.6,0-2.7,1.2-2.7,3S220,60.1,221.6,60.1z"/>
	<path class="st2" d="M231.8,62c-2.7,0-4.8-2.1-4.8-4.9c0-2.8,2-4.9,4.8-4.9c2,0,3.6,1.1,4.2,2.7l-1.8,0.9c-0.4-1-1.2-1.7-2.4-1.7
		c-1.5,0-2.6,1.2-2.6,3c0,1.7,1.1,2.9,2.6,2.9c1.1,0,2-0.6,2.4-1.7l1.8,0.9C235.4,60.9,233.8,62,231.8,62z"/>
	<path class="st2" d="M239,50.2c0,0.6-0.5,1.2-1.1,1.2c-0.6,0-1.2-0.5-1.2-1.2c0-0.6,0.5-1.1,1.2-1.1C238.5,49.1,239,49.6,239,50.2z
		 M238.9,61.8v-9.3h-2.1v9.3H238.9z"/>
	<path class="st2" d="M244.2,52.3c2.3,0,3.8,1.4,3.8,3.3v6.2h-2v-1c-0.7,0.8-1.6,1.2-2.8,1.2c-2.1,0-3.4-1.2-3.4-2.8
		c0-1.4,1.1-2.3,3-2.7l3.1-0.7v-0.3c0-0.9-0.7-1.4-1.7-1.4c-1,0-1.8,0.6-2.1,1.4l-1.8-0.9C240.8,53.3,242.3,52.3,244.2,52.3z
		 M243.5,60.4c1.4,0,2.4-1,2.4-2.3v-0.6l-2.6,0.6c-0.8,0.2-1.2,0.6-1.2,1.2C242,60,242.6,60.4,243.5,60.4z"/>
	<path class="st2" d="M249.2,61.8V49h2.1v12.9H249.2z"/>
</g>
</svg>
