<?xml version="1.0" encoding="utf-8"?>
<!-- Generator: Adobe Illustrator 27.2.0, SVG Export Plug-In . SVG Version: 6.00 Build 0)  -->
<svg version="1.1" id="Layer_1" xmlns="http://www.w3.org/2000/svg" xmlns:xlink="http://www.w3.org/1999/xlink" x="0px" y="0px"
	 viewBox="0 0 79 79" style="enable-background:new 0 0 79 79;" xml:space="preserve">
<style type="text/css">
	.st0{fill:#181622;}
	.st1{fill:#FF5555;}
	.st2{fill:#FFFF99;}
	.st3{fill:#00FFFF;}
	.st4{fill:#F8F8F2;}
</style>
<g>
	<path class="st0" d="M71.9,37.1c-0.4,6.9-6.5,12.1-13.4,12.1h-1.2v6.3c-4-4-9.3-6.3-14.9-6.3H20.4c-6.9,0-13-5.2-13.4-12.1
		c-0.4-7.6,5.5-13.8,13-13.8h38.9C66.4,23.2,72.3,29.5,71.9,37.1L71.9,37.1z"/>
	<path class="st0" d="M75.2,35.2c-0.3-5.9-4-11-9.1-13.5c-1-2.3-3.2-4-5.8-4c-1.9,0-3.5,0.8-4.7,2.1H20c-9.5,0-17.1,8.1-16.2,17.8
		c0.8,8.5,8.2,14.7,16.7,14.7H41c5.6,0,11,2.2,14.9,6.2l4.7,4.7v-11C69,51.5,75.6,44,75.2,35.2L75.2,35.2z"/>
	<path class="st1" d="M66.8,33.5c0,1.9-1.8,3.4-3.7,3c-1.1-0.2-2-1.1-2.2-2.2c-0.4-2,1-3.8,3-3.8C65.4,30.4,66.8,31.8,66.8,33.5
		L66.8,33.5z"/>
	<path class="st2" d="M67.3,28.1c0,0.5-0.4,1.1-1.1,1.1c-0.5,0-1.1-0.4-1.1-1.1c0-0.7,0.4-1.1,1.1-1.1C66.8,27,67.3,27.4,67.3,28.1
		L67.3,28.1z"/>
	<path class="st3" d="M65.1,23.8c0,2.6-2.2,4.8-4.8,4.8s-4.8-2.2-4.8-4.8s2.2-4.8,4.8-4.8C63,18.9,65.1,21.1,65.1,23.8L65.1,23.8z"
		/>
	<g>
		<path class="st4" d="M22.3,33.9c1,0,1.9,0.3,2.5,1.1c0.7,0.7,1.1,1.5,1.1,2.5c0,1-0.3,1.9-1.1,2.5c-0.7,0.7-1.5,1.1-2.5,1.1
			c-0.9,0-1.6-0.2-2.3-0.8c-0.4-0.3-0.8-0.8-1-1.2c-0.2-0.5-0.3-1-0.3-1.5v-6.4H20v6.4c0,0.7,0.2,1.2,0.7,1.6c0.4,0.4,1,0.7,1.6,0.7
			c0.7,0,1.2-0.2,1.6-0.7c0.4-0.4,0.7-1,0.7-1.6c0-0.7-0.2-1.2-0.7-1.6c-0.4-0.4-1-0.7-1.5-0.7c-0.3,0-0.7,0.1-1,0.2
			c-0.3,0.1-0.5,0.3-0.8,0.7v-1.8C21,34,21.7,33.9,22.3,33.9z"/>
		<path class="st4" d="M31,33.9h1.3v7.3h-3c-0.8,0-1.5-0.3-2.1-0.9c-0.5-0.5-0.9-1.3-0.9-2.1v-4.3h1.5v4.3c0,0.4,0.2,0.8,0.4,1.1
			c0.3,0.3,0.7,0.4,1.1,0.4H31V33.9z"/>
		<path class="st4" d="M37,33.9h1.9v1.3h-1.8c-0.7,0-1.2,0.2-1.6,0.7c-0.4,0.4-0.7,1-0.7,1.5V41h-1.4v-7.1h1.3v0.8
			C35.4,34.1,36.2,33.9,37,33.9z"/>
		<path class="st4" d="M46.6,33.9c0.8,0,1.5,0.3,2.1,0.9s0.9,1.3,0.9,2.1v4.3h-1.3v-4.3c0-0.4-0.1-0.8-0.4-1.1
			c-0.3-0.3-0.7-0.4-1.1-0.4c-0.4,0-0.8,0.1-1.1,0.4s-0.4,0.7-0.4,1.1v4.3h-1.3v-4.3c0-0.4-0.1-0.8-0.4-1.1
			c-0.3-0.3-0.7-0.4-1.1-0.4s-0.8,0.1-1.1,0.4s-0.4,0.7-0.4,1.1v4.3h-1.3v-4.3c0-0.5,0.1-1,0.3-1.4s0.5-0.8,1-1.1s1-0.4,1.5-0.4
			c0.4,0,0.9,0.1,1.2,0.3c0.4,0.2,0.8,0.4,1,0.8c0.2-0.2,0.4-0.4,0.7-0.5C45.5,34,46,33.9,46.6,33.9z"/>
		<path class="st4" d="M56.2,33.9h1.2v7.3h-3.6c-1,0-1.9-0.3-2.5-1.1c-0.7-0.7-1.1-1.5-1.1-2.5s0.3-1.9,1.1-2.5
			c0.7-0.7,1.5-1.1,2.5-1.1c0.7,0,1.2,0.1,1.8,0.4V36c-0.4-0.5-1.1-0.9-1.8-0.9s-1.2,0.2-1.6,0.7c-0.4,0.4-0.7,1-0.7,1.6
			c0,0.7,0.2,1.2,0.7,1.6c0.4,0.4,1,0.7,1.6,0.7H56v-5.8H56.2z"/>
	</g>
</g>
</svg>
