<?xml version="1.0" encoding="utf-8"?>
<!-- Generator: Adobe Illustrator 27.2.0, SVG Export Plug-In . SVG Version: 6.00 Build 0)  -->
<svg version="1.1" id="Layer_1" xmlns="http://www.w3.org/2000/svg" xmlns:xlink="http://www.w3.org/1999/xlink" x="0px" y="0px"
	 viewBox="0 0 65 65" style="enable-background:new 0 0 65 65;" xml:space="preserve">
<style type="text/css">
	.st0{fill:#181622;}
	.st1{fill:#FF5555;}
	.st2{fill:#FFFF99;}
	.st3{fill:#00FFFF;}
	.st4{fill:#F8F8F2;}
</style>
<g>
	<path class="st0" d="M62,33.3c-0.4,6.3-5.9,11-12.2,11h-1.1V50c-3.6-3.6-8.5-5.7-13.6-5.7H15.2c-6.3,0-11.8-4.7-12.2-11
		c-0.4-6.9,5-12.6,11.8-12.6h35.4C57,20.7,62.4,26.4,62,33.3L62,33.3z"/>
	<path class="st0" d="M65,31.6c-0.3-5.4-3.6-10-8.3-12.3c-0.9-2.1-2.9-3.6-5.3-3.6c-1.7,0-3.2,0.7-4.3,1.9H14.8
		C6.2,17.6-0.8,25,0.1,33.8c0.7,7.7,7.5,13.4,15.2,13.4h18.6c5.1,0,10,2,13.6,5.6l4.3,4.3v-10C59.4,46.4,65.4,39.6,65,31.6L65,31.6z
		"/>
	<path class="st1" d="M57.4,30c0,1.7-1.6,3.1-3.4,2.7c-1-0.2-1.8-1-2-2c-0.4-1.8,0.9-3.5,2.7-3.5C56.1,27.2,57.4,28.5,57.4,30
		L57.4,30z"/>
	<path class="st2" d="M57.8,25.1c0,0.5-0.4,1-1,1c-0.5,0-1-0.4-1-1s0.4-1,1-1C57.4,24.1,57.8,24.5,57.8,25.1L57.8,25.1z"/>
	<path class="st3" d="M55.8,21.2c0,2.4-2,4.4-4.4,4.4c-2.4,0-4.4-2-4.4-4.4s2-4.4,4.4-4.4C53.9,16.8,55.8,18.8,55.8,21.2L55.8,21.2z
		"/>
	<g>
		<path class="st4" d="M16.9,30.4c0.9,0,1.7,0.3,2.3,1c0.6,0.6,1,1.4,1,2.3s-0.3,1.7-1,2.3c-0.6,0.6-1.4,1-2.3,1
			c-0.8,0-1.5-0.2-2.1-0.7c-0.4-0.3-0.7-0.7-0.9-1.1c-0.2-0.5-0.3-0.9-0.3-1.4V28h1.2v5.8c0,0.6,0.2,1.1,0.6,1.5
			c0.4,0.4,0.9,0.6,1.5,0.6s1.1-0.2,1.5-0.6c0.4-0.4,0.6-0.9,0.6-1.5c0-0.6-0.2-1.1-0.6-1.5c-0.4-0.4-0.9-0.6-1.4-0.6
			c-0.3,0-0.6,0.1-0.9,0.2c-0.3,0.1-0.5,0.3-0.7,0.6v-1.6C15.7,30.5,16.3,30.4,16.9,30.4z"/>
		<path class="st4" d="M24.8,30.4H26V37h-2.7c-0.7,0-1.4-0.3-1.9-0.8s-0.8-1.2-0.8-1.9v-3.9H22v3.9c0,0.4,0.2,0.7,0.4,1
			c0.3,0.3,0.6,0.4,1,0.4h1.4V30.4z"/>
		<path class="st4" d="M30.3,30.4H32v1.2h-1.6c-0.6,0-1.1,0.2-1.5,0.6c-0.4,0.4-0.6,0.9-0.6,1.4v3.3H27v-6.5h1.2v0.7
			C28.8,30.6,29.5,30.4,30.3,30.4z"/>
		<path class="st4" d="M39,30.4c0.7,0,1.4,0.3,1.9,0.8s0.8,1.2,0.8,1.9V37h-1.2v-3.9c0-0.4-0.1-0.7-0.4-1c-0.3-0.3-0.6-0.4-1-0.4
			s-0.7,0.1-1,0.4s-0.4,0.6-0.4,1V37h-1.2v-3.9c0-0.4-0.1-0.7-0.4-1c-0.3-0.3-0.6-0.4-1-0.4c-0.4,0-0.7,0.1-1,0.4s-0.4,0.6-0.4,1V37
			h-1.2v-3.9c0-0.5,0.1-0.9,0.3-1.3s0.5-0.7,0.9-1c0.4-0.3,0.9-0.4,1.4-0.4c0.4,0,0.8,0.1,1.1,0.3c0.4,0.2,0.7,0.4,0.9,0.7
			c0.2-0.2,0.4-0.4,0.6-0.5C38,30.5,38.5,30.4,39,30.4z"/>
		<path class="st4" d="M47.7,30.4h1.1V37h-3.3c-0.9,0-1.7-0.3-2.3-1c-0.6-0.6-1-1.4-1-2.3c0-0.9,0.3-1.7,1-2.3c0.6-0.6,1.4-1,2.3-1
			c0.6,0,1.1,0.1,1.6,0.4v1.5c-0.4-0.5-1-0.8-1.6-0.8c-0.6,0-1.1,0.2-1.5,0.6c-0.4,0.4-0.6,0.9-0.6,1.5s0.2,1.1,0.6,1.5
			c0.4,0.4,0.9,0.6,1.5,0.6h2.1v-5.3H47.7z"/>
	</g>
</g>
</svg>
